<?xml version="1.0" encoding="UTF-8" standalone="no"?>
<!-- Created with Inkscape (http://www.inkscape.org/) -->

<svg
   version="1.1"
   id="svg2"
   width="4in"
   height="4in"
   viewBox="0 0 384.00001 384.00002"
   sodipodi:docname="my-resume-icon.svg"
   inkscape:version="1.1.2 (0a00cf5339, 2022-02-04, custom)"
   xmlns:inkscape="http://www.inkscape.org/namespaces/inkscape"
   xmlns:sodipodi="http://sodipodi.sourceforge.net/DTD/sodipodi-0.dtd"
   xmlns="http://www.w3.org/2000/svg"
   xmlns:svg="http://www.w3.org/2000/svg">
  <defs
     id="defs6" />
  <sodipodi:namedview
     id="namedview4"
     pagecolor="#ffffff"
     bordercolor="#cccccc"
     borderopacity="1"
     inkscape:pageshadow="0"
     inkscape:pageopacity="1"
     inkscape:pagecheckerboard="0"
     showgrid="false"
     inkscape:zoom="0.35069444"
     inkscape:cx="32.792079"
     inkscape:cy="283.72277"
     inkscape:window-width="1920"
     inkscape:window-height="1001"
     inkscape:window-x="-9"
     inkscape:window-y="-9"
     inkscape:window-maximized="1"
     inkscape:current-layer="g8"
     inkscape:document-units="in"
     units="in" />
  <g
     inkscape:groupmode="layer"
     inkscape:label="Image"
     id="g8">
    <path
       style="fill:#070707;stroke:none;stroke-width:0.619355"
       d="m 122.10756,29.249203 c -4.44449,1.50317 -7.94012,6.26601 -11.14838,9.47427 -7.34989,7.34988 -14.88991,14.58519 -21.85394,22.28748 -6.45739,7.14179 -14.20366,13.17306 -20.5248,20.448 -2.00547,2.30772 -4.97589,4.51448 -6.09073,7.43226 -1.77074,4.63587 -0.45956,11.796237 -0.45956,16.722577 v 37.78065 128.20645 60.69677 c 0,8.11603 -1.93487,18.624 3.51855,25.36878 5.21001,6.44377 12.51778,6.21832 20.01693,6.21832 h 39.63871 131.92258 39.01935 c 5.95572,0 13.50628,1.2257 19.2,-0.68439 17.01554,-5.70797 11.76775,-29.92289 11.76775,-43.90916 V 186.74928 79.600893 51.729923 c 0,-5.03969 0.59148,-10.39339 -2.20615,-14.86389 -8.36376,-13.3632 -34.43674,-8.05224 -47.9616,-8.05224 H 169.17853 136.97208 c -4.53058,0 -10.5408,-1.02689 -14.86452,0.43541 m -4.33548,23.71943 v 22.29678 c 0,2.53749 0.65032,6.42209 -1.50751,8.29749 -3.51917,3.05838 -15.01812,0.99283 -19.55055,0.99283 v 13.62581 c 7.11948,0 17.54632,1.914417 24.15483,-0.94948 5.08429,-2.20366 9.05931,-7.29847 10.20821,-12.67633 2.76356,-12.93275 0.32083,-28.88114 0.32083,-42.11613 h 135.63871 33.44516 c 3.22374,0 9.65017,-1.21208 12.01362,1.50751 2.7072,3.11535 0.99283,12.49672 0.99283,16.45378 v 44.593547 176.51613 52.0258 c 0,4.16393 2.0544,14.97786 -3.10854,16.45378 -5.09791,1.45797 -12.04026,0.2688 -17.33017,0.2688 H 255.26885 132.01724 91.13982 c -3.54333,0 -11.98018,1.54406 -14.49104,-1.43566 -3.05033,-3.62075 -0.99283,-15.02988 -0.99283,-19.6224 V 274.69766 148.34928 111.18799 c 0,-4.90344 -1.33037,-12.099717 0.37347,-16.722577 1.64377,-4.45812 7.47685,-8.46968 10.77492,-11.76775 l 19.81935,-19.81935 c 3.39655,-3.39654 6.75345,-7.86023 11.14839,-9.90968 m 80.51613,4.04377 c -10.39463,2.39876 -10.52903,12.10529 -10.52903,20.73043 v 59.458057 c 0,7.7184 -2.0606,18.7039 2.54431,25.36877 5.25584,7.6063 16.11933,5.59897 24.08795,5.59897 h 50.78709 c 7.44836,0 16.97466,1.57502 24.15484,-0.48867 10.17848,-2.92583 9.90968,-12.55556 9.90968,-21.18875 V 86.413793 c 0,-7.63045 2.01476,-18.29945 -2.96609,-24.71659 -5.58225,-7.19071 -16.93936,-5.01244 -24.90488,-5.01244 h -48.92903 c -7.59949,0 -16.74116,-1.38302 -24.15484,0.32764 m 87.32903,13.29817 v 84.232257 c -3.23799,-2.45327 -4.28593,-9.40305 -6.48093,-13.00646 -4.03138,-6.61842 -9.91773,-11.47726 -16.4352,-15.48387 3.43556,-6.65744 8.06029,-11.23324 8.61585,-19.2 2.06431,-29.623117 -38.40248,-39.102347 -52.31752,-14.245157 -2.09652,3.74462 -3.1166,8.107977 -3.30488,12.387097 -0.37347,8.49135 4.69842,14.19871 8.60655,21.05806 -6.51747,4.00661 -12.40382,8.86545 -16.4352,15.48387 -2.18508,3.58731 -3.15871,10.68883 -6.48093,13.00646 V 70.310573 h 84.23226 m -44.59355,21.26183 c 17.46581,-3.06147 23.1998,24.366037 5.5742,27.463427 -18.21461,3.20083 -23.80305,-24.268177 -5.5742,-27.463427 m 28.49033,62.970427 h -52.02581 c 4.32434,-24.25951 49.37683,-25.72119 52.02581,0 m -117.05807,42.11612 v 13.62581 H 264.55918 V 196.65895 H 152.45595 m -27.87097,34.68388 v 13.6258 h 139.9742 v -13.6258 h -139.9742 m 0,35.30322 v 13.62581 h 139.9742 v -13.62581 h -139.9742 m 0,34.68387 v 13.62581 H 236.68821 V 301.32992 H 124.58498 m 125.72904,0 v 13.62581 h 14.24516 v -13.62581 z"
       id="path827" />
  </g>
</svg>
